<?xml version="1.0" encoding="UTF-8"?>
<svg id="Layer_1" data-name="Layer 1" xmlns="http://www.w3.org/2000/svg" xmlns:xlink="http://www.w3.org/1999/xlink" viewBox="0 0 101.8 27.34">
  <defs>
    <style>
      .cls-1 {
        fill: url(#portfolio_gradient);
      }

      .cls-1, .cls-2 {
        stroke-width: 0px;
      }

      .cls-3 {
        letter-spacing: -.01em;
      }

      .cls-4 {
        font-family: PlusJakartaSans-Bold, 'Plus Jakarta Sans';
        font-size: 23px;
        font-variation-settings: 'wght' 700;
      }

      .cls-4, .cls-5 {
        font-weight: 700;
      }

      .cls-5 {
        fill: #fff;
        font-family: PlusJakartaSans-ExtraBold, 'Plus Jakarta Sans';
        font-size: 16px;
        font-variation-settings: 'wght' 800;
        letter-spacing: 0em;
      }

      .cls-6 {
        letter-spacing: 0em;
      }

      .cls-7 {
        letter-spacing: 0em;
      }

      .cls-8 {
        letter-spacing: 0em;
      }

      .cls-2 {
        fill: url(#portfolio_gradient-2);
      }
    </style>
    <linearGradient id="portfolio_gradient" data-name="portfolio gradient" x1="31.51" y1="13.39" x2="100.92" y2="13.39" gradientUnits="userSpaceOnUse">
      <stop offset="0" stop-color="#b16cea"/>
      <stop offset=".36" stop-color="#ff5e69"/>
      <stop offset=".68" stop-color="#ff8a56"/>
      <stop offset="1" stop-color="#ffa84b"/>
    </linearGradient>
    <linearGradient id="portfolio_gradient-2" data-name="portfolio gradient" x1="0" y1="12.69" x2="25.39" y2="12.69" xlink:href="#portfolio_gradient"/>
  </defs>
  <g>
    <text class="cls-4" transform="translate(29.87 21.82)"><tspan class="cls-6" x="0" y="0">M</tspan><tspan class="cls-3" x="20.49" y="0">a</tspan><tspan class="cls-7" x="33.56" y="0">t</tspan><tspan class="cls-8" x="42.9" y="0">eo</tspan></text>
    <g>
      <path class="cls-1" d="M31.51,21.82V4.69h3.01l6.42,8.72h-1.43l6.28-8.72h2.99v17.13h-3.15v-13.57l1.22.3-6.51,8.67h-.37l-6.35-8.67,1.04-.3v13.57h-3.15Z"/>
      <path class="cls-1" d="M55.57,22.1c-.87,0-1.64-.15-2.29-.44-.65-.29-1.15-.71-1.51-1.25-.35-.54-.53-1.18-.53-1.9s.16-1.31.47-1.85c.31-.54.79-1,1.44-1.37.64-.37,1.46-.63,2.44-.78l4.07-.67v2.3l-3.5.62c-.6.11-1.04.29-1.33.56-.29.27-.44.62-.44,1.07s.16.77.49,1.02c.33.25.74.38,1.23.38.63,0,1.18-.13,1.67-.4.48-.27.85-.64,1.12-1.12s.39-.99.39-1.54v-3.24c0-.54-.21-.99-.62-1.35-.41-.36-.97-.54-1.66-.54-.64,0-1.22.18-1.71.53-.5.35-.86.8-1.09,1.36l-2.46-1.2c.25-.66.63-1.23,1.16-1.71.53-.48,1.15-.86,1.88-1.14s1.5-.41,2.35-.41c1.03,0,1.93.19,2.71.56.78.38,1.39.9,1.83,1.58.44.68.66,1.45.66,2.32v8.33h-2.85v-2.14l.64-.02c-.32.52-.71.97-1.16,1.33-.45.37-.96.64-1.52.83s-1.18.28-1.87.28Z"/>
      <path class="cls-1" d="M70.54,21.96c-1.41,0-2.51-.39-3.29-1.16-.78-.77-1.17-1.87-1.17-3.28v-5.52h-2.14v-2.69h.23c.61,0,1.08-.16,1.41-.48s.49-.79.49-1.4v-.97h3.04v2.85h2.88v2.69h-2.88v5.36c0,.41.07.77.22,1.06.15.29.38.51.69.67.31.15.72.23,1.21.23.11,0,.23,0,.38-.02.15-.01.29-.03.42-.05v2.58c-.21.03-.46.06-.74.09-.28.03-.53.05-.76.05Z"/>
      <path class="cls-1" d="M80.11,22.1c-1.29,0-2.42-.29-3.39-.87s-1.73-1.37-2.27-2.37c-.54-1-.8-2.1-.8-3.31s.28-2.37.83-3.35c.55-.97,1.29-1.74,2.23-2.31s1.99-.85,3.17-.85c.98,0,1.84.16,2.59.48.74.32,1.38.77,1.9,1.33s.92,1.21,1.2,1.94.41,1.51.41,2.36c0,.23-.01.46-.03.68-.02.22-.07.42-.13.61h-9.66v-2.32h7.96l-1.45,1.08c.15-.71.13-1.33-.08-1.89s-.54-.99-1.01-1.31c-.47-.32-1.03-.48-1.69-.48s-1.19.16-1.68.48c-.49.32-.86.78-1.12,1.38-.25.6-.35,1.33-.29,2.19-.06.77.04,1.45.31,2.04.27.59.67,1.05,1.2,1.37.53.32,1.14.48,1.83.48s1.28-.15,1.76-.44c.48-.29.86-.68,1.14-1.17l2.44,1.2c-.25.6-.63,1.13-1.15,1.59s-1.14.82-1.86,1.08-1.5.39-2.35.39Z"/>
      <path class="cls-1" d="M94.3,22.1c-1.21,0-2.32-.28-3.32-.85-1-.57-1.81-1.34-2.4-2.32-.6-.98-.9-2.1-.9-3.36s.3-2.38.9-3.36c.6-.98,1.39-1.75,2.39-2.32,1-.57,2.11-.85,3.33-.85s2.36.28,3.36.85c1,.57,1.79,1.34,2.38,2.31.59.97.89,2.1.89,3.37s-.3,2.38-.9,3.36c-.6.98-1.4,1.76-2.39,2.32-1,.57-2.11.85-3.33.85ZM94.3,19.34c.69,0,1.29-.16,1.81-.48s.92-.77,1.22-1.35.45-1.22.45-1.94-.15-1.36-.45-1.93c-.3-.57-.71-1.01-1.22-1.33-.51-.32-1.12-.48-1.81-.48s-1.27.16-1.79.48c-.52.32-.93.77-1.23,1.33-.3.57-.45,1.21-.45,1.93s.15,1.37.45,1.94.71,1.02,1.23,1.35c.52.32,1.12.48,1.79.48Z"/>
    </g>
  </g>
  <circle class="cls-2" cx="12.69" cy="12.69" r="12.69"/>
  <text class="cls-5" transform="translate(5.4 18.75)"><tspan x="0" y="0">M</tspan></text>
</svg>